<svg xmlns="http://www.w3.org/2000/svg" viewBox="0 0 132.31 97.62"><defs><style>.cls-1{fill:#fff;}</style></defs><title>MacLogo</title><g id="Layer_3" data-name="Layer 3"><path class="cls-1" d="M68.56,56.05s4.31,1.21,4.81,9.62c.6,10.22,0,14.43-1.21,18,0,0,4.82,1.21,6,4.81s24.06,56.54,24.06,56.54h14.43l25-52.47,11.71-22.71,18.64-.6V56.05H139.52l-24.05,56.53s-6,14.43-8.42,24.06a39.25,39.25,0,0,1,1.2-15.64s-14.43-37.29-18-45.71S85.4,57.25,68.56,56.05Z" transform="translate(-39.69 -52.44)"/></g><g id="Layer_2" data-name="Layer 2"><path class="cls-1" d="M39.69,52.44V62.66s14.43-.6,13.23,6.62-3.61,20.45,0,25.26,7.22,6,10.83,6c0,0-12,2.41-12,10.83s3.61,21.65,1.2,24.05-6,4.82-13.23,3.61v10.83s19.24,1.2,24.06-2.41,7.21-6,7.21-15.63-4.81-19.25,1.2-24.06c3.61-2.41,9-1.81,9-1.81a95,95,0,0,0-3.61-10.82c-4.16-.7-8.66-3-8.42-8.42.6-13.83,2.4-13.23,1.2-21.65S61.34,52.44,39.69,52.44Z" transform="translate(-39.69 -52.44)"/><path class="cls-1" d="M143,50.24" transform="translate(-39.69 -52.44)"/></g><g id="Layer_4" data-name="Layer 4"><path class="cls-1" d="M158.17,67.47l-.6,69.17H172v13.23H140.73l.6-52.33s10.22-24.65,11.42-28.26Z" transform="translate(-39.69 -52.44)"/></g></svg>